<svg width="367" height="224" viewBox="0 0 367 224" fill="none" xmlns="http://www.w3.org/2000/svg">
<mask id="mask0_2_49" style="mask-type:luminance" maskUnits="userSpaceOnUse" x="111" y="0" width="151" height="150">
<path d="M261.254 0H111.966V149.333H261.254V0Z" fill="white"/>
</mask>
<g mask="url(#mask0_2_49)">
<path d="M186.61 144.66L129.364 112.846V4.66663L186.61 36.4871L243.856 4.67285V112.846L186.61 144.66Z" fill="#FFDB8C"/>
<path d="M129.364 22.0267L116.631 17.4036V125.564L186.61 144.66L129.364 112.846V22.0267ZM243.862 22.0267V112.846L186.61 144.66L256.583 125.571V17.4036L243.862 22.0267Z" fill="#834D00"/>
<path d="M255.52 14.4808C256.473 14.1343 257.538 14.2753 258.369 14.8576C259.198 15.44 259.693 16.3896 259.693 17.4036V125.569C259.693 126.972 258.755 128.201 257.403 128.571L187.43 147.663C186.894 147.81 186.326 147.81 185.79 147.663L115.812 128.565C114.459 128.195 113.521 126.966 113.521 125.563V17.4036C113.521 16.3896 114.016 15.44 114.845 14.8576C115.676 14.2753 116.741 14.1347 117.694 14.4808L130.427 19.105C131.655 19.552 132.474 20.7194 132.474 22.0277V111.016L186.61 141.094L240.753 111.016V22.0277C240.753 20.7195 241.571 19.5521 242.8 19.105L255.52 14.4808ZM246.973 24.203V112.846C246.973 113.975 246.362 115.019 245.376 115.568L210.593 134.89L253.473 123.188V21.8393L246.973 24.203ZM119.742 123.181L162.622 134.885L127.851 115.568C126.864 115.018 126.254 113.975 126.254 112.846V24.203L119.742 21.8393V123.181Z" fill="#3B2200"/>
<path d="M127.785 1.98695C128.735 1.42795 129.914 1.40895 130.877 1.94442L186.611 32.9219L242.345 1.95049C243.308 1.41578 244.482 1.43478 245.431 1.99302C246.381 2.55202 246.967 3.57043 246.968 4.67271V112.844C246.968 113.974 246.352 115.018 245.364 115.567L188.124 147.383C187.184 147.905 186.038 147.905 185.099 147.383L127.852 115.567C126.865 115.018 126.254 113.974 126.254 112.844V4.66664C126.254 3.5652 126.836 2.54626 127.785 1.98695ZM132.475 111.016L183.501 139.368V38.3117L132.475 9.9531V111.016ZM189.721 38.3117V139.368L240.748 111.016V9.9592L189.721 38.3117Z" fill="#3B2200"/>
</g>
<path d="M46.4099 171.908V173.028C45.141 173.065 44.1706 173.214 43.4988 173.476C42.8644 173.7 42.4352 174.148 42.2112 174.82C41.9873 175.454 41.8753 176.462 41.8753 177.844V205.62C41.8753 206.964 41.9873 207.972 42.2112 208.644C42.4352 209.316 42.8644 209.764 43.4988 209.988C44.1706 210.212 45.141 210.361 46.4099 210.436V211.556C45.5515 211.481 44.4692 211.444 43.1629 211.444C41.894 211.406 40.6064 211.388 39.3001 211.388C37.8445 211.388 36.4823 211.406 35.2133 211.444C33.9444 211.444 32.918 211.481 32.1343 211.556V210.436C33.4032 210.361 34.3549 210.212 34.9894 209.988C35.6612 209.764 36.1091 209.316 36.333 208.644C36.5569 207.972 36.6689 206.964 36.6689 205.62V174.82L36.8928 174.988L23.177 211.836H22.2813L8.17355 175.492V205.06C8.17355 206.404 8.28552 207.468 8.50945 208.252C8.77071 208.998 9.25589 209.54 9.96501 209.876C10.7114 210.174 11.8124 210.361 13.268 210.436V211.556C12.5962 211.481 11.7191 211.444 10.6368 211.444C9.55447 211.406 8.52811 211.388 7.55774 211.388C6.62469 211.388 5.67298 211.406 4.70261 211.444C3.76956 211.444 2.98579 211.481 2.35132 211.556V210.436C3.62027 210.361 4.57198 210.174 5.20645 209.876C5.87825 209.54 6.32611 208.998 6.55005 208.252C6.77398 207.468 6.88594 206.404 6.88594 205.06V177.844C6.88594 176.462 6.77398 175.454 6.55005 174.82C6.32611 174.148 5.87825 173.7 5.20645 173.476C4.57198 173.214 3.62027 173.065 2.35132 173.028V171.908C2.98579 171.945 3.76956 171.982 4.70261 172.02C5.67298 172.057 6.62469 172.076 7.55774 172.076C8.37883 172.076 9.21857 172.057 10.0769 172.02C10.9727 171.982 11.7191 171.945 12.3163 171.908L25.0244 205.396L24.0727 205.844L36.6689 172.076C37.1168 172.076 37.546 172.076 37.9565 172.076C38.4044 172.076 38.8522 172.076 39.3001 172.076C40.6064 172.076 41.894 172.057 43.1629 172.02C44.4692 171.982 45.5515 171.945 46.4099 171.908ZM56.772 168.716C57.7424 168.716 58.5822 169.07 59.2913 169.78C60.0004 170.489 60.3549 171.329 60.3549 172.3C60.3549 173.27 60.0004 174.11 59.2913 174.82C58.5822 175.529 57.7424 175.884 56.772 175.884C55.8017 175.884 54.9619 175.529 54.2528 174.82C53.5437 174.11 53.1891 173.27 53.1891 172.3C53.1891 171.329 53.5437 170.489 54.2528 169.78C54.9619 169.07 55.8017 168.716 56.772 168.716ZM59.6832 182.1V206.348C59.6832 207.916 60.0004 208.98 60.6349 209.54C61.3067 210.1 62.4074 210.38 63.9376 210.38V211.556C63.3031 211.518 62.3328 211.481 61.0267 211.444C59.7578 211.369 58.4702 211.332 57.1639 211.332C55.895 211.332 54.6074 211.369 53.3011 211.444C51.9948 211.481 51.0244 211.518 50.39 211.556V210.38C51.9202 210.38 53.0025 210.1 53.637 209.54C54.3088 208.98 54.6447 207.916 54.6447 206.348V188.82C54.6447 187.14 54.3461 185.908 53.7489 185.124C53.1518 184.302 52.0321 183.892 50.39 183.892V182.716C51.5843 182.828 52.7413 182.884 53.8609 182.884C54.9433 182.884 55.9696 182.828 56.94 182.716C57.9477 182.566 58.8621 182.361 59.6832 182.1ZM85.6018 181.932C87.02 181.932 88.1957 182.118 89.1287 182.492C90.0991 182.865 90.9015 183.388 91.536 184.06C92.2451 184.806 92.749 185.74 93.0476 186.86C93.3461 187.98 93.4954 189.492 93.4954 191.396V206.348C93.4954 207.916 93.8127 208.98 94.4471 209.54C95.1189 210.1 96.2199 210.38 97.7501 210.38V211.556C97.1157 211.518 96.1453 211.481 94.839 211.444C93.5327 211.369 92.2638 211.332 91.0322 211.332C89.8005 211.332 88.5876 211.369 87.3933 211.444C86.2363 211.481 85.3592 211.518 84.7621 211.556V210.38C86.1057 210.38 87.0574 210.1 87.6172 209.54C88.177 208.98 88.4569 207.916 88.4569 206.348V190.164C88.4569 189.006 88.3636 187.942 88.177 186.972C87.9904 186.001 87.5612 185.217 86.8894 184.62C86.255 184.022 85.2659 183.724 83.9223 183.724C82.3548 183.724 80.9739 184.172 79.7796 185.068C78.6226 185.964 77.7082 187.196 77.0364 188.764C76.4019 190.294 76.0847 192.012 76.0847 193.916V206.348C76.0847 207.916 76.3646 208.98 76.9244 209.54C77.4843 210.1 78.436 210.38 79.7796 210.38V211.556C79.1824 211.518 78.2867 211.481 77.0924 211.444C75.9354 211.369 74.7411 211.332 73.5095 211.332C72.2778 211.332 71.0089 211.369 69.7026 211.444C68.3964 211.481 67.426 211.518 66.7915 211.556V210.38C68.3217 210.38 69.404 210.1 70.0385 209.54C70.7103 208.98 71.0462 207.916 71.0462 206.348V188.82C71.0462 187.14 70.7476 185.908 70.1505 185.124C69.5533 184.302 68.4337 183.892 66.7915 183.892V182.716C67.9858 182.828 69.1428 182.884 70.2625 182.884C71.3448 182.884 72.3712 182.828 73.3415 182.716C74.3492 182.566 75.2636 182.361 76.0847 182.1V188.708C77.0551 186.169 78.3987 184.414 80.1155 183.444C81.8696 182.436 83.6984 181.932 85.6018 181.932ZM108.985 167.708V188.652C109.955 186.113 111.299 184.358 113.015 183.388C114.77 182.417 116.598 181.932 118.502 181.932C119.92 181.932 121.096 182.118 122.029 182.492C122.999 182.865 123.802 183.388 124.436 184.06C125.145 184.806 125.649 185.74 125.948 186.86C126.246 187.98 126.395 189.492 126.395 191.396V206.348C126.395 207.916 126.713 208.98 127.347 209.54C128.019 210.1 129.12 210.38 130.65 210.38V211.556C130.016 211.518 129.045 211.481 127.739 211.444C126.433 211.369 125.164 211.332 123.932 211.332C122.701 211.332 121.488 211.369 120.293 211.444C119.136 211.481 118.259 211.518 117.662 211.556V210.38C119.006 210.38 119.957 210.1 120.517 209.54C121.077 208.98 121.357 207.916 121.357 206.348V190.164C121.357 189.006 121.264 187.942 121.077 186.972C120.89 186.001 120.461 185.217 119.789 184.62C119.155 184.022 118.166 183.724 116.822 183.724C115.292 183.724 113.93 184.153 112.736 185.012C111.579 185.87 110.664 187.065 109.992 188.596C109.321 190.126 108.985 191.881 108.985 193.86V206.348C108.985 207.916 109.265 208.98 109.824 209.54C110.384 210.1 111.336 210.38 112.68 210.38V211.556C112.082 211.518 111.187 211.481 109.992 211.444C108.835 211.369 107.641 211.332 106.409 211.332C105.178 211.332 103.909 211.369 102.603 211.444C101.296 211.481 100.326 211.518 99.6915 211.556V210.38C101.222 210.38 102.304 210.1 102.939 209.54C103.61 208.98 103.946 207.916 103.946 206.348V174.428C103.946 172.748 103.648 171.516 103.05 170.732C102.453 169.91 101.334 169.5 99.6915 169.5V168.324C100.886 168.436 102.043 168.492 103.162 168.492C104.245 168.492 105.271 168.436 106.242 168.324C107.249 168.174 108.164 167.969 108.985 167.708ZM141.057 211.948C139.527 211.948 138.202 211.668 137.082 211.108C135.962 210.51 135.104 209.689 134.507 208.644C133.947 207.598 133.667 206.385 133.667 205.004C133.667 203.361 134.04 202.017 134.787 200.972C135.57 199.926 136.559 199.086 137.754 198.452C138.948 197.817 140.198 197.294 141.505 196.884C142.848 196.436 144.117 196.025 145.311 195.652C146.506 195.241 147.476 194.774 148.223 194.252C149.006 193.729 149.398 193.038 149.398 192.18V188.708C149.398 187.14 149.156 185.945 148.67 185.124C148.223 184.302 147.607 183.761 146.823 183.5C146.039 183.201 145.162 183.052 144.192 183.052C143.259 183.052 142.251 183.182 141.169 183.444C140.124 183.705 139.284 184.246 138.649 185.068C139.359 185.217 139.974 185.59 140.497 186.188C141.019 186.785 141.281 187.55 141.281 188.484C141.281 189.417 140.982 190.164 140.385 190.724C139.788 191.246 139.023 191.508 138.09 191.508C137.007 191.508 136.205 191.172 135.682 190.5C135.197 189.79 134.955 189.006 134.955 188.148C134.955 187.177 135.197 186.393 135.682 185.796C136.168 185.198 136.783 184.638 137.53 184.116C138.388 183.518 139.489 183.014 140.833 182.604C142.214 182.156 143.763 181.932 145.479 181.932C147.01 181.932 148.316 182.118 149.398 182.492C150.481 182.828 151.376 183.332 152.085 184.004C153.056 184.9 153.69 186.001 153.989 187.308C154.287 188.577 154.437 190.108 154.437 191.9V207.468C154.437 208.401 154.567 209.073 154.829 209.484C155.127 209.894 155.575 210.1 156.172 210.1C156.583 210.1 156.975 210.006 157.348 209.82C157.721 209.633 158.169 209.334 158.691 208.924L159.307 209.876C158.523 210.473 157.777 210.977 157.068 211.388C156.359 211.761 155.407 211.948 154.213 211.948C153.13 211.948 152.235 211.761 151.526 211.388C150.816 211.014 150.275 210.473 149.902 209.764C149.566 209.017 149.398 208.084 149.398 206.964C148.391 208.644 147.178 209.894 145.759 210.716C144.378 211.537 142.811 211.948 141.057 211.948ZM143.072 209.708C144.304 209.708 145.442 209.353 146.487 208.644C147.569 207.934 148.54 206.87 149.398 205.452V194.476C148.95 195.11 148.297 195.652 147.439 196.1C146.58 196.51 145.647 196.94 144.64 197.388C143.632 197.798 142.662 198.302 141.729 198.9C140.833 199.46 140.086 200.206 139.489 201.14C138.892 202.073 138.594 203.286 138.594 204.78C138.594 206.273 138.985 207.468 139.769 208.364C140.59 209.26 141.691 209.708 143.072 209.708ZM202.938 171.908C202.789 173.214 202.677 174.484 202.602 175.716C202.565 176.948 202.546 177.881 202.546 178.516C202.546 179.188 202.565 179.841 202.602 180.476C202.639 181.073 202.677 181.577 202.714 181.988H201.426C201.202 179.785 200.885 178.049 200.475 176.78C200.064 175.473 199.355 174.558 198.347 174.036C197.377 173.476 195.903 173.196 193.925 173.196H189.278C188.009 173.196 187.039 173.308 186.367 173.532C185.732 173.718 185.303 174.148 185.079 174.82C184.855 175.454 184.743 176.462 184.743 177.844V205.62C184.743 206.964 184.855 207.972 185.079 208.644C185.303 209.316 185.732 209.764 186.367 209.988C187.039 210.174 188.009 210.268 189.278 210.268H193.365C195.716 210.268 197.489 209.95 198.683 209.316C199.915 208.681 200.792 207.654 201.314 206.236C201.874 204.78 202.285 202.82 202.546 200.356H203.834C203.722 201.364 203.666 202.708 203.666 204.388C203.666 205.097 203.684 206.124 203.722 207.468C203.796 208.774 203.908 210.137 204.058 211.556C202.154 211.481 200.008 211.444 197.62 211.444C195.231 211.406 193.104 211.388 191.237 211.388C190.416 211.388 189.353 211.388 188.046 211.388C186.777 211.388 185.397 211.406 183.904 211.444C182.411 211.444 180.899 211.462 179.369 211.5C177.839 211.5 176.383 211.518 175.002 211.556V210.436C176.271 210.361 177.223 210.212 177.858 209.988C178.529 209.764 178.977 209.316 179.201 208.644C179.425 207.972 179.537 206.964 179.537 205.62V177.844C179.537 176.462 179.425 175.454 179.201 174.82C178.977 174.148 178.529 173.7 177.858 173.476C177.223 173.214 176.271 173.065 175.002 173.028V171.908C176.383 171.945 177.839 171.982 179.369 172.02C180.899 172.02 182.411 172.038 183.904 172.076C185.397 172.076 186.777 172.076 188.046 172.076C189.353 172.076 190.416 172.076 191.237 172.076C192.954 172.076 194.895 172.076 197.06 172.076C199.262 172.038 201.221 171.982 202.938 171.908ZM193.309 191.06C193.309 191.06 193.309 191.246 193.309 191.62C193.309 191.993 193.309 192.18 193.309 192.18H183.064C183.064 192.18 183.064 191.993 183.064 191.62C183.064 191.246 183.064 191.06 183.064 191.06H193.309ZM194.932 183.668C194.783 185.796 194.708 187.42 194.708 188.54C194.746 189.66 194.764 190.686 194.764 191.62C194.764 192.553 194.783 193.58 194.82 194.7C194.858 195.82 194.951 197.444 195.1 199.572H193.813C193.663 198.377 193.477 197.22 193.253 196.1C193.066 194.942 192.618 194.009 191.909 193.3C191.237 192.553 190.08 192.18 188.438 192.18V191.06C189.67 191.06 190.603 190.817 191.237 190.332C191.909 189.809 192.394 189.156 192.693 188.372C192.992 187.588 193.197 186.785 193.309 185.964C193.421 185.105 193.533 184.34 193.645 183.668H194.932ZM218.41 181.932C219.903 181.932 221.172 182.174 222.217 182.66C223.262 183.145 224.027 183.593 224.512 184.004C225.744 185.012 226.49 184.34 226.751 181.988H228.039C227.964 183.033 227.908 184.284 227.871 185.74C227.834 187.158 227.815 189.081 227.815 191.508H226.527C226.303 190.126 225.912 188.782 225.352 187.476C224.829 186.169 224.045 185.105 223 184.284C221.955 183.425 220.593 182.996 218.914 182.996C217.607 182.996 216.506 183.369 215.611 184.116C214.752 184.825 214.323 185.889 214.323 187.308C214.323 188.428 214.659 189.398 215.331 190.22C216.003 191.004 216.88 191.75 217.962 192.46C219.044 193.132 220.22 193.878 221.489 194.7C222.907 195.596 224.195 196.51 225.352 197.444C226.509 198.377 227.423 199.404 228.095 200.524C228.804 201.644 229.159 202.969 229.159 204.5C229.159 206.217 228.711 207.654 227.815 208.812C226.919 209.969 225.744 210.846 224.288 211.444C222.87 212.041 221.302 212.34 219.585 212.34C218.764 212.34 217.981 212.265 217.234 212.116C216.525 212.004 215.835 211.817 215.163 211.556C214.79 211.369 214.398 211.145 213.987 210.884C213.614 210.622 213.241 210.342 212.867 210.044C212.494 209.745 212.158 209.764 211.86 210.1C211.561 210.398 211.337 211.014 211.188 211.948H209.9C209.975 210.753 210.031 209.297 210.068 207.58C210.106 205.862 210.124 203.585 210.124 200.748H211.412C211.673 202.838 212.046 204.668 212.532 206.236C213.017 207.804 213.782 209.036 214.827 209.932C215.872 210.79 217.327 211.22 219.194 211.22C219.94 211.22 220.686 211.052 221.433 210.716C222.217 210.38 222.87 209.82 223.392 209.036C223.915 208.252 224.176 207.206 224.176 205.9C224.176 204.257 223.579 202.913 222.385 201.868C221.19 200.822 219.679 199.721 217.85 198.564C216.506 197.705 215.237 196.846 214.043 195.988C212.886 195.129 211.934 194.158 211.188 193.076C210.479 191.993 210.124 190.686 210.124 189.156C210.124 187.476 210.498 186.113 211.244 185.068C212.028 183.985 213.054 183.201 214.323 182.716C215.592 182.193 216.954 181.932 218.41 181.932ZM242.441 173.42V182.772H250.727V183.892H242.441V205.564C242.441 207.318 242.759 208.55 243.393 209.26C244.028 209.969 244.905 210.324 246.024 210.324C247.144 210.324 248.114 209.876 248.935 208.98C249.757 208.046 250.466 206.497 251.063 204.332L252.182 204.612C251.809 206.777 251.063 208.606 249.943 210.1C248.861 211.593 247.181 212.34 244.905 212.34C243.636 212.34 242.591 212.172 241.77 211.836C240.949 211.537 240.221 211.089 239.586 210.492C238.765 209.633 238.187 208.606 237.851 207.412C237.552 206.217 237.403 204.63 237.403 202.652V183.892H232.029V182.772H237.403V174.204C238.336 174.166 239.232 174.092 240.09 173.98C240.949 173.868 241.732 173.681 242.441 173.42ZM261.169 211.948C259.639 211.948 258.314 211.668 257.194 211.108C256.075 210.51 255.216 209.689 254.619 208.644C254.059 207.598 253.779 206.385 253.779 205.004C253.779 203.361 254.152 202.017 254.899 200.972C255.683 199.926 256.672 199.086 257.866 198.452C259.06 197.817 260.311 197.294 261.617 196.884C262.96 196.436 264.229 196.025 265.424 195.652C266.618 195.241 267.588 194.774 268.335 194.252C269.119 193.729 269.511 193.038 269.511 192.18V188.708C269.511 187.14 269.268 185.945 268.783 185.124C268.335 184.302 267.719 183.761 266.935 183.5C266.152 183.201 265.274 183.052 264.304 183.052C263.371 183.052 262.363 183.182 261.281 183.444C260.236 183.705 259.396 184.246 258.762 185.068C259.471 185.217 260.087 185.59 260.609 186.188C261.132 186.785 261.393 187.55 261.393 188.484C261.393 189.417 261.094 190.164 260.497 190.724C259.9 191.246 259.135 191.508 258.202 191.508C257.12 191.508 256.317 191.172 255.795 190.5C255.309 189.79 255.067 189.006 255.067 188.148C255.067 187.177 255.309 186.393 255.795 185.796C256.28 185.198 256.896 184.638 257.642 184.116C258.5 183.518 259.601 183.014 260.945 182.604C262.326 182.156 263.875 181.932 265.592 181.932C267.122 181.932 268.428 182.118 269.511 182.492C270.593 182.828 271.489 183.332 272.198 184.004C273.168 184.9 273.803 186.001 274.101 187.308C274.4 188.577 274.549 190.108 274.549 191.9V207.468C274.549 208.401 274.68 209.073 274.941 209.484C275.239 209.894 275.687 210.1 276.284 210.1C276.695 210.1 277.087 210.006 277.46 209.82C277.833 209.633 278.281 209.334 278.804 208.924L279.419 209.876C278.636 210.473 277.889 210.977 277.18 211.388C276.471 211.761 275.519 211.948 274.325 211.948C273.243 211.948 272.347 211.761 271.638 211.388C270.929 211.014 270.388 210.473 270.014 209.764C269.678 209.017 269.511 208.084 269.511 206.964C268.503 208.644 267.29 209.894 265.872 210.716C264.491 211.537 262.923 211.948 261.169 211.948ZM263.184 209.708C264.416 209.708 265.554 209.353 266.599 208.644C267.682 207.934 268.652 206.87 269.511 205.452V194.476C269.063 195.11 268.409 195.652 267.551 196.1C266.693 196.51 265.76 196.94 264.752 197.388C263.744 197.798 262.774 198.302 261.841 198.9C260.945 199.46 260.199 200.206 259.601 201.14C259.004 202.073 258.706 203.286 258.706 204.78C258.706 206.273 259.098 207.468 259.881 208.364C260.703 209.26 261.803 209.708 263.184 209.708ZM299.912 181.932C301.33 181.932 302.506 182.118 303.439 182.492C304.409 182.865 305.212 183.388 305.846 184.06C306.555 184.806 307.059 185.74 307.358 186.86C307.656 187.98 307.805 189.492 307.805 191.396V206.348C307.805 207.916 308.123 208.98 308.757 209.54C309.429 210.1 310.53 210.38 312.06 210.38V211.556C311.426 211.518 310.455 211.481 309.149 211.444C307.843 211.369 306.574 211.332 305.342 211.332C304.111 211.332 302.898 211.369 301.703 211.444C300.546 211.481 299.669 211.518 299.072 211.556V210.38C300.416 210.38 301.367 210.1 301.927 209.54C302.487 208.98 302.767 207.916 302.767 206.348V190.164C302.767 189.006 302.674 187.942 302.487 186.972C302.3 186.001 301.871 185.217 301.199 184.62C300.565 184.022 299.576 183.724 298.232 183.724C296.665 183.724 295.284 184.172 294.09 185.068C292.933 185.964 292.018 187.196 291.346 188.764C290.712 190.294 290.395 192.012 290.395 193.916V206.348C290.395 207.916 290.675 208.98 291.234 209.54C291.794 210.1 292.746 210.38 294.09 210.38V211.556C293.492 211.518 292.597 211.481 291.402 211.444C290.245 211.369 289.051 211.332 287.819 211.332C286.588 211.332 285.319 211.369 284.013 211.444C282.706 211.481 281.736 211.518 281.101 211.556V210.38C282.632 210.38 283.714 210.1 284.348 209.54C285.02 208.98 285.356 207.916 285.356 206.348V188.82C285.356 187.14 285.058 185.908 284.46 185.124C283.863 184.302 282.744 183.892 281.101 183.892V182.716C282.296 182.828 283.453 182.884 284.572 182.884C285.655 182.884 286.681 182.828 287.651 182.716C288.659 182.566 289.574 182.361 290.395 182.1V188.708C291.365 186.169 292.709 184.414 294.425 183.444C296.18 182.436 298.008 181.932 299.912 181.932ZM323.519 173.42V182.772H331.804V183.892H323.519V205.564C323.519 207.318 323.836 208.55 324.47 209.26C325.105 209.969 325.982 210.324 327.102 210.324C328.221 210.324 329.192 209.876 330.013 208.98C330.834 208.046 331.543 206.497 332.14 204.332L333.26 204.612C332.886 206.777 332.14 208.606 331.02 210.1C329.938 211.593 328.258 212.34 325.982 212.34C324.713 212.34 323.668 212.172 322.847 211.836C322.026 211.537 321.298 211.089 320.663 210.492C319.842 209.633 319.264 208.606 318.928 207.412C318.629 206.217 318.48 204.63 318.48 202.652V183.892H313.106V182.772H318.48V174.204C319.413 174.166 320.309 174.092 321.167 173.98C322.026 173.868 322.809 173.681 323.519 173.42ZM347.9 181.932C351.184 181.932 353.741 182.94 355.57 184.956C357.436 186.934 358.369 190.033 358.369 194.252H338.607L338.551 193.188H352.994C353.069 191.358 352.92 189.678 352.546 188.148C352.173 186.58 351.576 185.329 350.755 184.396C349.971 183.462 348.945 182.996 347.676 182.996C345.959 182.996 344.429 183.854 343.085 185.572C341.779 187.289 340.995 190.014 340.734 193.748L340.902 193.972C340.827 194.532 340.771 195.148 340.734 195.82C340.697 196.492 340.678 197.164 340.678 197.836C340.678 200.374 341.089 202.558 341.91 204.388C342.731 206.217 343.794 207.617 345.101 208.588C346.444 209.521 347.825 209.988 349.243 209.988C350.363 209.988 351.427 209.82 352.434 209.484C353.442 209.11 354.375 208.513 355.234 207.692C356.092 206.87 356.838 205.769 357.473 204.388L358.593 204.836C358.182 206.068 357.51 207.262 356.577 208.42C355.644 209.577 354.469 210.529 353.05 211.276C351.632 211.985 349.99 212.34 348.124 212.34C345.437 212.34 343.123 211.724 341.182 210.492C339.278 209.26 337.804 207.561 336.759 205.396C335.752 203.193 335.248 200.673 335.248 197.836C335.248 194.55 335.77 191.732 336.815 189.38C337.86 186.99 339.334 185.161 341.238 183.892C343.141 182.585 345.362 181.932 347.9 181.932Z" fill="#FFDB8C"/>
</svg>
